_states
version=1
nRows=42
nColumns=11
inDegrees=yes

# SIMM Motion File Header:
name _states
datacolumns 11
datarows 42
otherdata 1
range 0.00000000 0.26796360
endheader
time	/jointset/boatJoint/bJoint_3/value	/jointset/boatJoint/bJoint_3/speed	/jointset/boatJoint/bJoint_4/value	/jointset/boatJoint/bJoint_4/speed	/jointset/baseJoint/baseangle/value	/jointset/baseJoint/baseangle/speed	/jointset/lowerJoint/kneeangle/value	/jointset/lowerJoint/kneeangle/speed	/jointset/bladeJoint/bladeangle/value	/jointset/bladeJoint/bladeangle/speed
      0.00000000	     -0.00000000	      0.00000000	      0.00000000	      0.00000000	      7.39458336	   -136.18633196	    -54.09593128	    119.30125956	     46.70135190	     16.90400953
      0.00762295	      0.00000004	      0.00001574	      0.00000008	      0.00003399	      6.36752844	   -133.27304899	    -53.18799370	    118.89307624	     46.82072877	     14.42262675
      0.01524591	      0.00000027	      0.00004184	      0.00000054	      0.00008226	      5.36268237	   -130.37315340	    -52.28343470	    118.43154014	     46.92131742	     11.97276037
      0.02187858	      0.00000058	      0.00005158	      0.00000110	      0.00008077	      4.50609807	   -127.93636774	    -51.49915945	    118.06307194	     46.99372987	      9.87215652
      0.02851126	      0.00000098	      0.00007169	      0.00000162	      0.00008101	      3.66535894	   -125.59254783	    -50.71728681	    117.69935286	     47.05252125	      7.87683834
      0.03514394	      0.00000154	      0.00009594	      0.00000221	      0.00009770	      2.83984124	   -123.35082392	    -49.93781120	    117.34631419	     47.09848796	      6.00301526
      0.04177662	      0.00000221	      0.00010383	      0.00000292	      0.00011421	      2.02878076	   -121.23974056	    -49.16054730	    117.03908587	     47.13240236	      4.23949319
      0.04840930	      0.00000294	      0.00011900	      0.00000364	      0.00009738	      1.23115038	   -119.30655141	    -48.38505016	    116.81759036	     47.15488877	      2.55092756
      0.05504197	      0.00000380	      0.00013859	      0.00000416	      0.00005561	      0.44574640	   -117.54898754	    -47.61073448	    116.67982541	     47.16637041	      0.92020126
      0.06167465	      0.00000474	      0.00014501	      0.00000438	      0.00001616	     -0.32850863	   -115.93559233	    -46.83710821	    116.60252744	     47.16720976	     -0.65860742
      0.06900466	      0.00000585	      0.00015944	      0.00000442	     -0.00000157	     -1.17200782	   -114.22061682	    -45.98273235	    116.51060763	     47.15617776	     -2.34105452
      0.07633468	      0.00000709	      0.00017712	      0.00000440	     -0.00000242	     -2.00312731	   -112.56298279	    -45.12906517	    116.41626470	     47.13303280	     -3.96534990
      0.08245816	      0.00000818	      0.00017978	      0.00000438	     -0.00000370	     -2.68833743	   -111.24564028	    -44.41636681	    116.36262069	     47.10470035	     -5.27691435
      0.08858165	      0.00000931	      0.00019036	      0.00000435	     -0.00000722	     -3.36567250	   -109.98879551	    -43.70396702	    116.31549829	     47.06862384	     -6.48799545
      0.09470514	      0.00001052	      0.00020383	      0.00000430	     -0.00000812	     -4.03547634	   -108.78525887	    -42.99184581	    116.27248345	     47.02545451	     -7.59518173
      0.10082862	      0.00001179	      0.00020929	      0.00000426	     -0.00000440	     -4.69806938	   -107.63382727	    -42.27995958	    116.24008304	     46.97579971	     -8.61001711
      0.10695211	      0.00001309	      0.00021690	      0.00000425	     -0.00000038	     -5.35377817	   -106.53767318	    -41.56821357	    116.22869591	     46.92004914	     -9.60228670
      0.11307560	      0.00001446	      0.00022952	      0.00000425	      0.00000007	     -6.00295918	   -105.50276328	    -40.85644608	    116.24842608	     46.85815741	    -10.61600142
      0.11919908	      0.00001589	      0.00023613	      0.00000424	     -0.00000309	     -6.64600338	   -104.53393172	    -40.14444522	    116.30574162	     46.78999053	    -11.65185787
      0.12532257	      0.00001734	      0.00023988	      0.00000421	     -0.00000597	     -7.28328967	   -103.61598929	    -39.43201024	    116.38313943	     46.71545725	    -12.68713229
      0.13144606	      0.00001884	      0.00025089	      0.00000417	     -0.00000597	     -7.91504274	   -102.72690002	    -38.71911254	    116.45781886	     46.63467804	    -13.69148969
      0.13756955	      0.00002041	      0.00025943	      0.00000414	     -0.00000639	     -8.54145730	   -101.87385443	    -38.00573457	    116.54219879	     46.54783328	    -14.66890049
      0.14369303	      0.00002200	      0.00026057	      0.00000409	     -0.00000937	     -9.16277777	   -101.06247415	    -37.29178565	    116.64262536	     46.45508368	    -15.61762220
      0.14981652	      0.00002362	      0.00026896	      0.00000402	     -0.00001207	     -9.77922963	   -100.28248980	    -36.57722257	    116.74159894	     46.35666490	    -16.51962394
      0.15594001	      0.00002530	      0.00027774	      0.00000395	     -0.00001333	    -10.39099535	    -99.53215837	    -35.86205010	    116.84284948	     46.25285449	    -17.37956641
      0.16206349	      0.00002700	      0.00027953	      0.00000386	     -0.00001372	    -10.99826382	    -98.81520264	    -35.14623103	    116.95531608	     46.14389360	    -18.20346116
      0.16818698	      0.00002873	      0.00028614	      0.00000378	     -0.00001483	    -11.60128396	    -98.14678637	    -34.42963317	    117.10001577	     46.02996048	    -19.00543553
      0.17431047	      0.00003051	      0.00029547	      0.00000368	     -0.00001535	    -12.20037381	    -97.53148873	    -33.71203263	    117.28277673	     45.91117186	    -19.78937016
      0.18043395	      0.00003234	      0.00029988	      0.00000359	     -0.00001261	    -12.79585573	    -96.96769294	    -32.99319876	    117.50209701	     45.78763703	    -20.55564259
      0.18783831	      0.00003458	      0.00030704	      0.00000352	     -0.00000814	    -13.51145620	    -96.32921548	    -32.12212158	    117.78637357	     45.63208098	    -21.45763083
      0.19524266	      0.00003690	      0.00031722	      0.00000346	     -0.00000785	    -14.22245077	    -95.72474902	    -31.24891218	    118.08044906	     45.46993375	    -22.33725348
      0.20264701	      0.00003925	      0.00031840	      0.00000339	     -0.00001278	    -14.92912055	    -95.16045212	    -30.37344452	    118.39541353	     45.30133650	    -23.20107949
      0.21005136	      0.00004163	      0.00032680	      0.00000329	     -0.00001282	    -15.63170345	    -94.61838385	    -29.49564820	    118.70666864	     45.12636445	    -24.06151731
      0.21745571	      0.00004409	      0.00033653	      0.00000321	     -0.00000808	    -16.33035827	    -94.10141527	    -28.61554255	    119.02246198	     44.94500202	    -24.92830994
      0.22338762	      0.00004610	      0.00033880	      0.00000318	     -0.00000357	    -16.88739648	    -93.71385183	    -27.90872458	    119.29081824	     44.79505711	    -25.62389732
      0.23061307	      0.00004857	      0.00034781	      0.00000316	     -0.00000180	    -17.56292886	    -93.28018629	    -27.04554426	    119.64184068	     44.60699205	    -26.42339233
      0.23783852	      0.00005112	      0.00035490	      0.00000314	     -0.00000306	    -18.23548295	    -92.88962392	    -26.17972094	    120.02306037	     44.41334387	    -27.17002589
      0.24386354	      0.00005326	      0.00035587	      0.00000312	     -0.00000446	    -18.79424069	    -92.59146928	    -25.45557085	    120.35742205	     44.24785686	    -27.76123377
      0.24988855	      0.00005542	      0.00036323	      0.00000310	     -0.00000269	    -19.35121499	    -92.29621175	    -24.72944736	    120.67672627	     44.07882055	    -28.35091640
      0.25591357	      0.00005764	      0.00037141	      0.00000309	      0.00000090	    -19.90642273	    -92.00608747	    -24.00142831	    120.98859850	     43.90621541	    -28.94673693
      0.26193858	      0.00005988	      0.00037439	      0.00000311	      0.00000423	    -20.45991559	    -91.72944370	    -23.27152288	    121.30653479	     43.72999121	    -29.55233674
      0.26796360	      0.00006216	      0.00038064	      0.00000314	      0.00000556	    -21.01183930	    -91.48835580	    -22.53960485	    121.66071919	     43.55010083	    -30.16256052
